<svg width="402" height="406" viewBox="0 0 402 406" fill="none" xmlns="http://www.w3.org/2000/svg">
<path d="M402 203C402 315.114 312.009 406 201 406C89.9908 406 0 315.114 0 203C0 90.8862 89.9908 0 201 0C312.009 0 402 90.8862 402 203ZM140.7 203C140.7 236.634 167.697 263.9 201 263.9C234.303 263.9 261.3 236.634 261.3 203C261.3 169.366 234.303 142.1 201 142.1C167.697 142.1 140.7 169.366 140.7 203Z" fill="#EDEDED"/>
<path d="M402 203C402 315.114 312.009 406 201 406C89.9908 406 0 315.114 0 203C0 90.8862 89.9908 0 201 0C312.009 0 402 90.8862 402 203ZM140.7 203C140.7 236.634 167.697 263.9 201 263.9C234.303 263.9 261.3 236.634 261.3 203C261.3 169.366 234.303 142.1 201 142.1C167.697 142.1 140.7 169.366 140.7 203Z" fill="url(#paint0_linear)"/>
<defs>
<linearGradient id="paint0_linear" x1="301" y1="140" x2="201" y2="406" gradientUnits="userSpaceOnUse">
<stop stop-color="#CCCCCC" stop-opacity="0.8"/>
<stop offset="1" stop-color="white" stop-opacity="0"/>
</linearGradient>
</defs>
</svg>
