<svg width="394" height="394" viewBox="0 0 394 394" fill="none" xmlns="http://www.w3.org/2000/svg">
<path d="M98.8539 98.8539C153.45 44.2583 241.448 43.7397 295.404 97.6954C349.359 151.651 348.841 239.65 294.245 294.245C239.65 348.841 151.651 349.359 97.6955 295.404C43.7397 241.448 44.2584 153.449 98.8539 98.8539ZM243.15 243.149C269.191 217.108 269.439 175.133 243.702 149.397C217.966 123.661 175.991 123.908 149.95 149.95C123.908 175.991 123.661 217.966 149.397 243.702C175.133 269.438 217.108 269.191 243.15 243.149Z" fill="#FF9F81"/>
<path d="M98.8539 98.8539C153.45 44.2583 241.448 43.7397 295.404 97.6954C349.359 151.651 348.841 239.65 294.245 294.245C239.65 348.841 151.651 349.359 97.6955 295.404C43.7397 241.448 44.2584 153.449 98.8539 98.8539ZM243.15 243.149C269.191 217.108 269.439 175.133 243.702 149.397C217.966 123.661 175.991 123.908 149.95 149.95C123.908 175.991 123.661 217.966 149.397 243.702C175.133 269.438 217.108 269.191 243.15 243.149Z" fill="url(#paint0_linear)"/>
<defs>
<linearGradient id="paint0_linear" x1="97.6955" y1="295.404" x2="295.404" y2="97.6954" gradientUnits="userSpaceOnUse">
<stop stop-color="#FF7D54"/>
<stop offset="1" stop-color="white" stop-opacity="0"/>
</linearGradient>
</defs>
</svg>
