<svg width="233" height="235" viewBox="0 0 233 235" fill="none" xmlns="http://www.w3.org/2000/svg">
<path d="M233 117.5C233 182.393 180.841 235 116.5 235C52.1588 235 0 182.393 0 117.5C0 52.6065 52.1588 0 116.5 0C180.841 0 233 52.6065 233 117.5ZM60.9305 117.5C60.9305 148.454 85.8098 173.546 116.5 173.546C147.19 173.546 172.069 148.454 172.069 117.5C172.069 86.5464 147.19 61.4535 116.5 61.4535C85.8098 61.4535 60.9305 86.5464 60.9305 117.5Z" fill="#FF9F81"/>
<path d="M233 117.5C233 182.393 180.841 235 116.5 235C52.1588 235 0 182.393 0 117.5C0 52.6065 52.1588 0 116.5 0C180.841 0 233 52.6065 233 117.5ZM60.9305 117.5C60.9305 148.454 85.8098 173.546 116.5 173.546C147.19 173.546 172.069 148.454 172.069 117.5C172.069 86.5464 147.19 61.4535 116.5 61.4535C85.8098 61.4535 60.9305 86.5464 60.9305 117.5Z" fill="url(#paint0_linear)"/>
<defs>
<linearGradient id="paint0_linear" x1="116.5" y1="0" x2="116.5" y2="235" gradientUnits="userSpaceOnUse">
<stop stop-color="#FCBFAC"/>
<stop offset="1" stop-color="#FF9F81" stop-opacity="0"/>
</linearGradient>
</defs>
</svg>
