<svg width="331" height="334" viewBox="0 0 331 334" fill="none" xmlns="http://www.w3.org/2000/svg">
<path d="M331 167C331 259.232 256.903 334 165.5 334C74.0969 334 0 259.232 0 167C0 74.7684 74.0969 0 165.5 0C256.903 0 331 74.7684 331 167ZM58.7935 167C58.7935 226.467 106.568 274.674 165.5 274.674C224.432 274.674 272.207 226.467 272.207 167C272.207 107.533 224.432 59.3264 165.5 59.3264C106.568 59.3264 58.7935 107.533 58.7935 167Z" fill="#EDEDED"/>
<path d="M331 167C331 259.232 256.903 334 165.5 334C74.0969 334 0 259.232 0 167C0 74.7684 74.0969 0 165.5 0C256.903 0 331 74.7684 331 167ZM58.7935 167C58.7935 226.467 106.568 274.674 165.5 274.674C224.432 274.674 272.207 226.467 272.207 167C272.207 107.533 224.432 59.3264 165.5 59.3264C106.568 59.3264 58.7935 107.533 58.7935 167Z" fill="url(#paint0_linear)"/>
<defs>
<linearGradient id="paint0_linear" x1="165.5" y1="0" x2="165.5" y2="334" gradientUnits="userSpaceOnUse">
<stop stop-color="#CCCCCC" stop-opacity="0.82"/>
<stop offset="1" stop-color="white" stop-opacity="0"/>
</linearGradient>
</defs>
</svg>
