<svg width="30" height="31" viewBox="0 0 30 31" fill="none" xmlns="http://www.w3.org/2000/svg">
<path d="M29.0533 22.5892C28.8196 22.3428 28.4403 22.3428 28.2067 22.5892L22.2686 28.8463V0.630849C22.2686 0.282515 22.0005 0 21.6699 0C21.3394 0 21.0713 0.282515 21.0713 0.630849V28.8462L15.133 22.589C14.8994 22.3428 14.5202 22.3427 14.2864 22.5891C14.0526 22.8355 14.0526 23.2349 14.2865 23.4812L21.2467 30.8153C21.3635 30.9384 21.5168 31 21.6699 31C21.8231 31 21.9764 30.9384 22.0932 30.8152L29.0533 23.4811C29.2871 23.2349 29.2871 22.8355 29.0533 22.5892Z" fill="#FF9F81"/>
<path d="M0.59868 1.26194H18.5728C18.9033 1.26194 19.1714 0.979426 19.1714 0.631093C19.1714 0.282759 18.9033 0.000244141 18.5728 0.000244141H0.59868C0.268109 0.000244141 0 0.282759 0 0.631093C0 0.979426 0.268109 1.26194 0.59868 1.26194Z" fill="#FF9F81"/>
<path d="M0.59868 8.64549H18.5728C18.9033 8.64549 19.1714 8.36297 19.1714 8.01464C19.1714 7.6663 18.9033 7.38379 18.5728 7.38379H0.59868C0.268109 7.38379 0 7.6663 0 8.01464C0 8.36297 0.268109 8.64549 0.59868 8.64549Z" fill="#FF9F81"/>
<path d="M0.59868 16.0295H18.5728C18.9033 16.0295 19.1714 15.747 19.1714 15.3987C19.1714 15.0503 18.9033 14.7678 18.5728 14.7678H0.59868C0.268109 14.7678 0 15.0503 0 15.3987C0 15.747 0.268109 16.0295 0.59868 16.0295Z" fill="#FF9F81"/>
<path d="M12.321 22.1516H0.59868C0.268109 22.1516 0 22.4341 0 22.7825C0 23.1308 0.268109 23.4133 0.59868 23.4133H12.321C12.6516 23.4133 12.9197 23.1308 12.9197 22.7825C12.9197 22.4341 12.6517 22.1516 12.321 22.1516Z" fill="#FF9F81"/>
<path d="M12.321 29.5354H0.59868C0.268109 29.5354 0 29.8179 0 30.1662C0 30.5146 0.268109 30.7971 0.59868 30.7971H12.321C12.6516 30.7971 12.9197 30.5146 12.9197 30.1662C12.9197 29.8179 12.6517 29.5354 12.321 29.5354Z" fill="#FF9F81"/>
</svg>
