<svg width="40" height="28" viewBox="0 0 40 28" fill="none" xmlns="http://www.w3.org/2000/svg">
<path d="M10.0007 7.46673C9.9277 7.46801 9.85521 7.4549 9.78732 7.42816C9.71943 7.40143 9.65747 7.36158 9.60498 7.31089C9.49897 7.20853 9.43797 7.06825 9.43539 6.92091C9.43281 6.77357 9.48887 6.63124 9.59123 6.52523C9.69359 6.41923 9.83387 6.35822 9.98121 6.35564C12.7071 6.32519 15.4271 6.09495 18.1194 5.66677C18.1672 5.65679 18.2162 5.65343 18.2649 5.65677C18.9397 5.69245 19.5944 5.8989 20.1677 6.25676C20.2623 6.32553 20.3329 6.42242 20.3692 6.53363C20.4055 6.64484 20.4058 6.76469 20.3701 6.87608C20.3343 6.98748 20.2643 7.08473 20.17 7.15398C20.0757 7.22323 19.9619 7.26094 19.8449 7.26174C19.7141 7.26171 19.5872 7.21681 19.4855 7.13452C19.111 6.91987 18.6915 6.79565 18.2605 6.77175C15.5322 7.2004 12.7766 7.43266 10.0151 7.46673H10.0007Z" fill="#FF9F81"/>
<path d="M30.3223 20.6833C29.8483 20.6839 29.3864 20.5341 29.0029 20.2555L28.8835 20.1727C28.8679 20.1622 28.8418 20.1411 28.8174 20.1172L22.278 15.4078C22.217 15.3662 22.1649 15.3127 22.1247 15.2507C22.0846 15.1886 22.0572 15.1191 22.0443 15.0464C22.0313 14.9736 22.033 14.899 22.0493 14.8269C22.0655 14.7548 22.096 14.6866 22.1389 14.6264C22.1818 14.5662 22.2363 14.5152 22.2992 14.4764C22.3621 14.4375 22.4321 14.4116 22.5051 14.4002C22.5782 14.3887 22.6527 14.3919 22.7245 14.4097C22.7962 14.4274 22.8637 14.4593 22.923 14.5034L23.3675 14.8201L29.4868 19.2328C29.5051 19.2459 29.5225 19.2602 29.539 19.2755L29.6451 19.3494C29.8861 19.5221 30.1842 19.5958 30.4778 19.5552C30.7715 19.5145 31.0384 19.3627 31.2234 19.1311C31.3369 18.9878 31.4143 18.8194 31.449 18.6399C31.4837 18.4604 31.4748 18.2753 31.4229 18.1C31.3605 17.8792 31.2314 17.6831 31.0534 17.5384L22.3069 10.4124C18.9576 12.1901 16.5848 11.2757 15.4521 10.5518C15.2649 10.43 15.1129 10.2612 15.0113 10.0623C14.9096 9.86339 14.8619 9.64133 14.8729 9.41823C14.8838 9.19514 14.9531 8.97882 15.0737 8.79084C15.1944 8.60286 15.3622 8.44978 15.5604 8.34687L20.567 5.68804C20.8865 5.52086 21.236 5.41859 21.5953 5.38713C21.9546 5.35566 22.3165 5.39562 22.6603 5.50471L25.6219 6.4658C26.4938 6.75257 27.4395 6.71849 28.2885 6.36969L29.5785 5.84137C29.646 5.81368 29.7183 5.79957 29.7913 5.79982C29.8642 5.80008 29.9364 5.81472 30.0038 5.84288C30.0711 5.87105 30.1322 5.9122 30.1836 5.96398C30.235 6.01577 30.2758 6.07718 30.3034 6.1447C30.3311 6.21222 30.3452 6.28453 30.345 6.3575C30.3447 6.43048 30.3301 6.50269 30.3019 6.57001C30.2738 6.63733 30.2326 6.69844 30.1808 6.74986C30.129 6.80128 30.0676 6.84199 30.0001 6.86968L28.7113 7.39745C27.618 7.84746 26.3998 7.8916 25.2769 7.52189L22.318 6.56135C22.1154 6.49769 21.9021 6.47473 21.6906 6.4938C21.479 6.51287 21.2733 6.57359 21.0853 6.67246L16.0776 9.33185C16.0497 9.34499 16.026 9.3656 16.0092 9.3914C15.9923 9.41719 15.9829 9.44715 15.9821 9.47796C15.9798 9.50583 15.9852 9.53379 15.9977 9.55878C16.0103 9.58377 16.0294 9.60482 16.0532 9.61963C17.2198 10.3652 19.2226 10.9118 22.0897 9.26463C22.1872 9.20861 22.2995 9.1835 22.4115 9.19263C22.5236 9.20175 22.6303 9.24468 22.7175 9.31574L31.7506 16.6767C32.1049 16.9625 32.3625 17.3504 32.4884 17.7878C32.5882 18.132 32.6049 18.495 32.5373 18.847C32.4698 19.199 32.3197 19.53 32.0995 19.8128C31.8897 20.0843 31.6204 20.304 31.3123 20.4549C31.0041 20.6059 30.6654 20.684 30.3223 20.6833Z" fill="#FF9F81"/>
<path d="M28.0234 23.2582C27.5526 23.2587 27.0934 23.1125 26.7096 22.8399L20.7041 18.5789C20.5868 18.4925 20.508 18.3636 20.4849 18.2198C20.4617 18.0759 20.4959 17.9288 20.5802 17.8099C20.6645 17.6911 20.7921 17.6102 20.9355 17.5845C21.0789 17.5588 21.2266 17.5905 21.3469 17.6728L27.3523 21.9332C27.6043 22.0978 27.9101 22.1587 28.2059 22.103C28.5016 22.0474 28.7645 21.8797 28.9395 21.6349C29.1144 21.39 29.188 21.087 29.1449 20.7892C29.1017 20.4914 28.9451 20.2217 28.7079 20.0366L22.7224 15.7228C22.6121 15.6336 22.5401 15.5055 22.5212 15.3649C22.5023 15.2242 22.538 15.0817 22.6208 14.9665C22.7037 14.8513 22.8275 14.7722 22.9668 14.7454C23.1062 14.7185 23.2505 14.7461 23.3702 14.8223L29.3573 19.1366C29.747 19.4188 30.0374 19.8171 30.1867 20.2744C30.3361 20.7318 30.3368 21.2247 30.1888 21.6825C30.0407 22.1403 29.7515 22.5394 29.3626 22.8227C28.9737 23.106 28.5051 23.2588 28.024 23.2593L28.0234 23.2582Z" fill="#FF9F81"/>
<path d="M25.4308 25.4842C24.9836 25.4841 24.5472 25.347 24.1803 25.0914L18.7987 21.3637C18.6775 21.2798 18.5946 21.1512 18.5683 21.0062C18.5419 20.8612 18.5743 20.7116 18.6582 20.5904C18.7421 20.4692 18.8707 20.3863 19.0157 20.36C19.1607 20.3336 19.3103 20.366 19.4315 20.4499L24.813 24.1776C24.9312 24.2593 25.0643 24.317 25.2048 24.3473C25.3453 24.3775 25.4903 24.3798 25.6317 24.3541C25.773 24.3283 25.9079 24.2749 26.0287 24.1969C26.1494 24.119 26.2536 24.018 26.3352 23.8998C26.4978 23.6628 26.561 23.3715 26.5111 23.0884C26.4612 22.8054 26.3024 22.5531 26.0686 22.3859L20.7131 18.5871C20.6522 18.5455 20.6003 18.4922 20.5602 18.4302C20.5201 18.3683 20.4928 18.299 20.4798 18.2264C20.4668 18.1538 20.4684 18.0793 20.4845 18.0073C20.5006 17.9353 20.5309 17.8673 20.5736 17.8071C20.6163 17.747 20.6705 17.6959 20.7331 17.6569C20.7957 17.6179 20.8655 17.5918 20.9383 17.5801C21.0111 17.5683 21.0856 17.5712 21.1573 17.5886C21.229 17.6059 21.2965 17.6373 21.3559 17.681L26.7113 21.4799C27.1827 21.8167 27.5032 22.3251 27.6038 22.8957C27.7045 23.4663 27.5773 24.0536 27.2497 24.5315C27.0859 24.7703 26.8765 24.9743 26.6334 25.1316C26.3904 25.2889 26.1185 25.3965 25.8336 25.4481C25.7007 25.4724 25.5659 25.4844 25.4308 25.4842Z" fill="#FF9F81"/>
<path d="M22.2565 27.3108C21.8678 27.3089 21.4864 27.2051 21.1504 27.0097L18.1633 25.2875C18.0367 25.2133 17.9446 25.0921 17.9071 24.9502C17.8696 24.8084 17.8898 24.6575 17.9631 24.5305C18.0365 24.4034 18.1571 24.3105 18.2987 24.2721C18.4402 24.2337 18.5913 24.2528 18.7188 24.3253L21.7054 26.0475C21.9579 26.19 22.2561 26.2282 22.5363 26.1539C22.8166 26.0795 23.0567 25.8986 23.2054 25.6497C23.3466 25.4111 23.3915 25.1276 23.3309 24.857C23.2703 24.5865 23.1088 24.3492 22.8793 24.1936L19.0627 21.5498C19.0027 21.5083 18.9515 21.4553 18.912 21.394C18.8725 21.3326 18.8455 21.2641 18.8324 21.1923C18.8194 21.1206 18.8207 21.0469 18.8361 20.9756C18.8515 20.9043 18.8809 20.8367 18.9224 20.7768C18.964 20.7168 19.0169 20.6656 19.0782 20.6261C19.1396 20.5866 19.2081 20.5595 19.2799 20.5465C19.3517 20.5335 19.4253 20.5347 19.4966 20.5502C19.5679 20.5656 19.6355 20.5949 19.6954 20.6365L23.5115 23.2798C23.8989 23.548 24.1905 23.9328 24.3439 24.3783C24.4974 24.8238 24.5045 25.3066 24.3644 25.7565C24.2243 26.2063 23.9442 26.5997 23.565 26.8793C23.1857 27.1588 22.7271 27.31 22.2559 27.3108H22.2565Z" fill="#FF9F81"/>
<path d="M15.9659 26.9791C15.5114 26.9798 15.0676 26.8418 14.6936 26.5836C14.3196 26.3253 14.0333 25.9591 13.8729 25.5339C13.7125 25.1086 13.6857 24.6445 13.7961 24.2037C13.9064 23.7628 14.1486 23.366 14.4904 23.0664L15.9743 21.7665C16.1948 21.5729 16.4513 21.4246 16.7291 21.3301C17.0069 21.2357 17.3006 21.1969 17.5934 21.2159C17.8862 21.2349 18.1724 21.3114 18.4356 21.4411C18.6988 21.5707 18.934 21.7509 19.1275 21.9715C19.3211 22.192 19.4693 22.4485 19.5637 22.7263C19.6582 23.0041 19.6969 23.2979 19.6778 23.5907C19.6588 23.8835 19.5822 24.1697 19.4525 24.4329C19.3228 24.6961 19.1425 24.9312 18.922 25.1247L17.4381 26.4275C17.0309 26.7843 16.5074 26.9805 15.9659 26.9791ZM17.4476 22.322C17.1751 22.3213 16.9118 22.4201 16.707 22.5998L15.2226 23.9014C15.1117 23.9987 15.0211 24.1169 14.9559 24.2492C14.8906 24.3815 14.8521 24.5254 14.8425 24.6726C14.8329 24.8198 14.8523 24.9674 14.8998 25.1071C14.9472 25.2468 15.0217 25.3758 15.119 25.4867C15.3155 25.7106 15.5929 25.8473 15.8902 25.8668C16.0374 25.8764 16.185 25.8569 16.3247 25.8095C16.4644 25.762 16.5934 25.6876 16.7043 25.5903L18.1881 24.2875C18.3593 24.1368 18.4805 23.9376 18.5357 23.7164C18.5908 23.4951 18.5773 23.2623 18.4969 23.0489C18.4165 22.8355 18.2731 22.6517 18.0856 22.5218C17.8982 22.392 17.6756 22.3223 17.4476 22.322Z" fill="#FF9F81"/>
<path d="M12.6028 25.4659C12.5533 25.4659 12.5039 25.4659 12.4545 25.4615C12.1615 25.4431 11.875 25.3669 11.6116 25.2372C11.3483 25.1075 11.1132 24.927 10.92 24.7059C10.7238 24.4854 10.5731 24.2282 10.4765 23.9493C10.3799 23.6703 10.3393 23.375 10.3571 23.0803C10.3749 22.7856 10.4507 22.4974 10.5802 22.2321C10.7097 21.9668 10.8903 21.7296 11.1117 21.5343L13.5905 19.3583C13.811 19.1647 14.0675 19.0164 14.3453 18.9219C14.6231 18.8275 14.9168 18.7886 15.2096 18.8077C15.5024 18.8267 15.7886 18.9032 16.0519 19.0329C16.3151 19.1625 16.5502 19.3427 16.7438 19.5632L16.3422 19.9482L16.7594 19.5816C16.953 19.8021 17.1013 20.0585 17.1958 20.3363C17.2904 20.6141 17.3292 20.9079 17.3102 21.2007C17.2911 21.4935 17.2146 21.7797 17.0849 22.043C16.9552 22.3062 16.7749 22.5413 16.5544 22.7349L14.0733 24.9109C13.6674 25.2693 13.1443 25.4667 12.6028 25.4659ZM15.0611 19.9138C14.789 19.9131 14.526 20.0119 14.3216 20.1916L11.8428 22.3676C11.6768 22.5175 11.5586 22.7128 11.5028 22.9293C11.447 23.1459 11.4561 23.374 11.529 23.5854C11.6019 23.7968 11.7354 23.982 11.9127 24.1182C12.0901 24.2543 12.3036 24.3352 12.5267 24.3509C12.674 24.361 12.8218 24.3417 12.9616 24.294C13.1013 24.2463 13.2301 24.1712 13.3405 24.0732L15.8194 21.8971C15.9303 21.7998 16.021 21.6816 16.0862 21.5492C16.1514 21.4169 16.1899 21.273 16.1995 21.1257C16.2091 20.9785 16.1896 20.8308 16.1421 20.6911C16.0946 20.5514 16.0201 20.4224 15.9227 20.3116L15.9066 20.2932C15.8097 20.1828 15.6918 20.0926 15.5598 20.0278C15.4279 19.9631 15.2844 19.9251 15.1377 19.916C15.1116 19.9149 15.0855 19.9144 15.0605 19.9144L15.0611 19.9138Z" fill="#FF9F81"/>
<path d="M9.7995 23.4266C9.75061 23.4266 9.70116 23.4266 9.65117 23.4222C9.35818 23.4038 9.07173 23.3276 8.80836 23.1979C8.54499 23.0682 8.30993 22.8877 8.11675 22.6666L8.0562 22.5944C7.66571 22.149 7.46807 21.5667 7.50672 20.9757C7.54537 20.3846 7.81714 19.833 8.26231 19.4422L11.1361 16.9195C11.3566 16.7259 11.6131 16.5775 11.8909 16.483C12.1687 16.3885 12.4624 16.3497 12.7552 16.3687C13.0481 16.3878 13.3343 16.4643 13.5975 16.594C13.8608 16.7237 14.0959 16.9039 14.2894 17.1245L14.3522 17.1962C14.7428 17.6415 14.9405 18.2238 14.9019 18.8149C14.8632 19.4061 14.5914 19.9576 14.1461 20.3483L11.2722 22.8711C10.8658 23.2301 10.3418 23.4277 9.7995 23.4266ZM12.6067 17.4756C12.3346 17.4749 12.0716 17.5737 11.8672 17.7534L8.9934 20.2761C8.76925 20.4728 8.63238 20.7504 8.6129 21.0479C8.59341 21.3455 8.69292 21.6386 8.88951 21.8628L8.95229 21.9344C9.14903 22.158 9.42645 22.2943 9.72363 22.3135C10.0208 22.3326 10.3134 22.2331 10.5373 22.0366L13.4111 19.5139C13.522 19.4166 13.6127 19.2984 13.6779 19.166C13.7431 19.0337 13.7816 18.8898 13.7912 18.7426C13.8008 18.5953 13.7813 18.4476 13.7338 18.3079C13.6863 18.1682 13.6118 18.0393 13.5144 17.9284L13.4528 17.8578C13.3557 17.7469 13.2377 17.6563 13.1054 17.5912C12.9732 17.5262 12.8293 17.488 12.6822 17.479C12.6561 17.4767 12.6317 17.4756 12.6067 17.4756Z" fill="#FF9F81"/>
<path d="M7.38439 20.9537C7.3355 20.9537 7.2855 20.9537 7.23606 20.9487C6.79228 20.9207 6.36676 20.7618 6.01327 20.4921C5.65977 20.2223 5.39418 19.8538 5.25006 19.4332C5.10594 19.0125 5.08976 18.5586 5.20356 18.1288C5.31736 17.6989 5.55603 17.3125 5.88942 17.0182L7.68882 15.4388C7.9093 15.2451 8.16577 15.0968 8.44358 15.0023C8.72139 14.9078 9.0151 14.869 9.30793 14.888C9.60076 14.907 9.88697 14.9836 10.1502 15.1133C10.4134 15.243 10.6485 15.4232 10.8421 15.6438L10.8615 15.666C11.0552 15.8865 11.2035 16.143 11.298 16.4208C11.3925 16.6986 11.4314 16.9923 11.4123 17.2851C11.3933 17.578 11.3168 17.8642 11.1871 18.1274C11.0574 18.3906 10.8771 18.6257 10.6565 18.8193L8.85713 20.3987C8.4506 20.7576 7.92665 20.955 7.38439 20.9537ZM9.16213 15.9943C8.89002 15.9937 8.62705 16.0924 8.4227 16.2721L6.62329 17.8515C6.51237 17.9488 6.42172 18.067 6.35649 18.1994C6.29127 18.3317 6.25276 18.4757 6.24317 18.6229C6.23357 18.7701 6.25308 18.9178 6.30057 19.0575C6.34806 19.1972 6.42261 19.3262 6.51996 19.4371C6.61653 19.5514 6.73485 19.6455 6.86806 19.7138C7.00126 19.7821 7.1467 19.8233 7.29594 19.835C7.44518 19.8467 7.59525 19.8286 7.73746 19.7818C7.87967 19.7351 8.01118 19.6606 8.12437 19.5626L9.92378 17.9832C10.0347 17.8859 10.1254 17.7677 10.1906 17.6353C10.2558 17.503 10.2943 17.3591 10.3039 17.2118C10.3135 17.0646 10.294 16.9169 10.2465 16.7772C10.199 16.6375 10.1245 16.5086 10.0271 16.3977L10.0077 16.3755C9.91063 16.2643 9.79251 16.1736 9.66015 16.1085C9.52778 16.0433 9.38381 16.0051 9.23657 15.996C9.20935 15.9955 9.18435 15.9943 9.15935 15.9943H9.16213Z" fill="#FF9F81"/>
<path d="M6.37688 17.8844C6.25664 17.8846 6.1396 17.8456 6.04355 17.7733L4.14526 16.3289C4.08718 16.2847 4.03838 16.2295 4.00163 16.1665C3.96489 16.1035 3.94092 16.0338 3.93109 15.9615C3.92126 15.8892 3.92577 15.8157 3.94436 15.7451C3.96295 15.6746 3.99525 15.6084 4.03942 15.5503C4.12864 15.433 4.26079 15.356 4.4068 15.3361C4.4791 15.3263 4.55263 15.3308 4.62319 15.3494C4.69374 15.368 4.75995 15.4003 4.81802 15.4445L6.71632 16.8889C6.80983 16.959 6.87884 17.0568 6.91352 17.1685C6.94821 17.2801 6.9468 17.3998 6.90951 17.5106C6.87221 17.6213 6.80093 17.7175 6.7058 17.7855C6.61067 17.8534 6.49654 17.8896 6.37966 17.8888L6.37688 17.8844Z" fill="#FF9F81"/>
<path d="M31.9551 18.4999C31.8452 18.4999 31.7378 18.4673 31.6465 18.4062C31.5552 18.3452 31.484 18.2584 31.4419 18.1569C31.3999 18.0554 31.3889 17.9437 31.4103 17.836C31.4318 17.7282 31.4846 17.6293 31.5623 17.5516L34.6795 14.4333C34.7843 14.3321 34.9246 14.2761 35.0702 14.2774C35.2159 14.2786 35.3552 14.3371 35.4582 14.4401C35.5612 14.5431 35.6197 14.6824 35.6209 14.8281C35.6222 14.9737 35.5662 15.1141 35.465 15.2188L32.3479 18.336C32.2964 18.3878 32.2352 18.4289 32.1678 18.457C32.1004 18.4852 32.0281 18.4997 31.9551 18.4999Z" fill="#FF9F81"/>
<path d="M36.2057 17.3471C36.1107 17.3472 36.0172 17.323 35.9342 17.2767C35.8513 17.2304 35.7816 17.1636 35.7318 17.0827L28.9486 6.04954C28.8769 5.93283 28.8509 5.79375 28.8755 5.65902C28.9001 5.52429 28.9736 5.4034 29.0819 5.31956L35.8001 0.116326C35.8739 0.0592104 35.9608 0.0215831 36.0529 0.00691349C36.145 -0.00775609 36.2394 0.00100425 36.3272 0.0323872C36.415 0.0637702 36.4936 0.116765 36.5555 0.186485C36.6175 0.256205 36.6609 0.340405 36.6818 0.43132L39.9856 14.846C40.013 14.9633 40.0015 15.0864 39.9529 15.1966C39.9043 15.3068 39.8212 15.3983 39.7161 15.4571L36.4768 17.2776C36.3939 17.3237 36.3005 17.3476 36.2057 17.3471ZM30.1563 5.89177L36.3984 16.0443L38.8101 14.6888L35.7934 1.52685L30.1563 5.89177Z" fill="#FF9F81"/>
<path d="M3.79506 17.5443C3.69991 17.5442 3.60637 17.5197 3.5234 17.4732L0.284017 15.6554C0.178924 15.5965 0.0958157 15.5051 0.0472171 15.3949C-0.00138144 15.2846 -0.0128365 15.1616 0.0145783 15.0443L3.31896 0.631271C3.33981 0.540356 3.38323 0.456156 3.44519 0.386436C3.50716 0.316717 3.58568 0.263722 3.67352 0.232339C3.76136 0.200956 3.85569 0.192195 3.9478 0.206865C4.03992 0.221534 4.12686 0.259162 4.20061 0.316277L10.9194 5.51895C11.0277 5.60279 11.1012 5.72369 11.1258 5.85842C11.1504 5.99315 11.1244 6.13222 11.0527 6.24894L4.26894 17.282C4.21888 17.3626 4.14906 17.4289 4.06612 17.4748C3.98317 17.5207 3.88986 17.5446 3.79506 17.5443ZM1.19067 14.8899L3.60228 16.2448L9.84438 6.09172L4.20727 1.7268L1.19067 14.8899Z" fill="#FF9F81"/>
</svg>
