<svg width="35" height="32" viewBox="0 0 35 32" fill="none" xmlns="http://www.w3.org/2000/svg">
<path d="M34.9999 2.51707C34.9999 1.12916 33.9601 3.26227e-09 32.6819 3.26227e-09H2.31798C1.03986 -7.00827e-05 0 1.12916 0 2.51707V25.2778C0 26.6658 1.03986 27.7948 2.31805 27.7948H14.9783L14.054 30.5983H12.266C11.8832 30.5983 11.5728 30.9121 11.5728 31.2991C11.5728 31.6862 11.8832 32 12.266 32H14.5537H20.4463H22.734C23.1168 32 23.4272 31.6862 23.4272 31.2991C23.4272 30.9121 23.1168 30.5983 22.734 30.5983H20.946L20.0217 27.7948H32.6819C33.9601 27.7948 35 26.6658 35 25.2778V2.51707H34.9999ZM1.38648 2.51707C1.38648 1.90206 1.80436 1.40172 2.31805 1.40172H32.6819C33.1956 1.40172 33.6135 1.90206 33.6135 2.51707V19.2736H1.38648V2.51707ZM19.4844 30.5983H15.5155L16.4398 27.7948H18.56L19.4844 30.5983ZM33.6134 25.2778C33.6134 25.8927 33.1956 26.3931 32.6819 26.3931H19.0597H15.9401H2.31798C1.80436 26.3931 1.38641 25.8927 1.38641 25.2778V20.6753H33.6134V25.2778H33.6134Z" fill="#FF9F81"/>
<path d="M17.9999 28.9129C19.1064 28.9129 20.0064 28.0128 20.0064 26.9064C20.0064 25.8 19.1064 24.8999 17.9999 24.8999C16.8935 24.8999 15.9934 25.8 15.9934 26.9064C15.9934 28.0128 16.8935 28.9129 17.9999 28.9129ZM17.9999 26.326C18.3199 26.326 18.5803 26.5863 18.5803 26.9064C18.5803 27.2265 18.32 27.4868 17.9999 27.4868C17.6798 27.4868 17.4195 27.2265 17.4195 26.9064C17.4195 26.5863 17.6798 26.326 17.9999 26.326Z" fill="#FF9F81"/>
<path d="M3.48477 11.1494C3.09103 11.1494 2.77173 11.4687 2.77173 11.8625V20.587C2.77173 20.9808 3.09103 21.3001 3.48477 21.3001C3.87852 21.3001 4.19782 20.9808 4.19782 20.587V11.8625C4.19782 11.4686 3.87859 11.1494 3.48477 11.1494Z" fill="#FF9F81"/>
<path d="M3.48477 5.73022C3.09103 5.73022 2.77173 6.04953 2.77173 6.44327V9.25759C2.77173 9.65134 3.09103 9.97064 3.48477 9.97064C3.87852 9.97064 4.19782 9.65134 4.19782 9.25759V6.44327C4.19782 6.04946 3.87859 5.73022 3.48477 5.73022Z" fill="#FF9F81"/>
</svg>
