<svg width="45" height="34" viewBox="0 0 45 34" fill="none" xmlns="http://www.w3.org/2000/svg">
<path d="M41.9668 0H7.22944C5.55706 0 4.19634 1.36063 4.19634 3.03319V6.50303H3.03319C1.36063 6.50294 0 7.86366 0 9.53613V30.5345C0 32.207 1.36063 33.5677 3.03319 33.5677H37.7706C39.4429 33.5677 40.8037 32.2071 40.8037 30.5345V27.0648H41.9668C43.6393 27.0648 45 25.7041 45 24.0316V3.03319C45 1.36072 43.6394 0 41.9668 0ZM3.03319 8.26075H37.7706C38.4738 8.26075 39.0458 8.83283 39.0458 9.53613V11.8624H1.75781V9.53613C1.75781 8.83292 2.32998 8.26075 3.03319 8.26075ZM1.75781 13.6202H39.0458V16.9974H1.75781V13.6202ZM37.7706 31.8099H3.03319C2.32998 31.8099 1.75781 31.2378 1.75781 30.5345V18.7553H39.0458V30.5345C39.0458 31.2378 38.4738 31.8099 37.7706 31.8099ZM43.2422 24.0316C43.2422 24.7348 42.67 25.307 41.9668 25.307H40.8037V9.53613C40.8037 7.86366 39.4429 6.50294 37.7706 6.50294H5.95415V3.03319C5.95415 2.32998 6.52623 1.75781 7.22944 1.75781H41.9668C42.67 1.75781 43.2422 2.32989 43.2422 3.03319V24.0316Z" fill="#FF9F81"/>
<path d="M18.3058 23.6624H13.9636C13.4783 23.6624 13.0847 24.0558 13.0847 24.5413V28.181C13.0847 28.6664 13.4783 29.0599 13.9636 29.0599H18.3058C18.7911 29.0599 19.1847 28.6664 19.1847 28.181V24.5413C19.1847 24.0558 18.7912 23.6624 18.3058 23.6624ZM17.4269 27.3021H14.8425V25.4202H17.4269V27.3021Z" fill="#FF9F81"/>
<path d="M26.84 23.6624H22.4978C22.0125 23.6624 21.6189 24.0558 21.6189 24.5413V28.181C21.6189 28.6664 22.0125 29.0599 22.4978 29.0599H26.84C27.3253 29.0599 27.7189 28.6664 27.7189 28.181V24.5413C27.7189 24.0558 27.3253 23.6624 26.84 23.6624ZM25.961 27.3021H23.3767V25.4202H25.961V27.3021Z" fill="#FF9F81"/>
<path d="M35.3739 23.6624H31.0317C30.5464 23.6624 30.1528 24.0558 30.1528 24.5413V28.181C30.1528 28.6664 30.5464 29.0599 31.0317 29.0599H35.3739C35.8592 29.0599 36.2528 28.6664 36.2528 28.181V24.5413C36.2528 24.0558 35.8592 23.6624 35.3739 23.6624ZM34.495 27.3021H31.9106V25.4202H34.495V27.3021Z" fill="#FF9F81"/>
<path d="M9.77192 23.6624H5.42969C4.94436 23.6624 4.55078 24.0558 4.55078 24.5413V28.181C4.55078 28.6664 4.94436 29.0599 5.42969 29.0599H9.77184C10.2572 29.0599 10.6507 28.6664 10.6507 28.181V24.5413C10.6508 24.0558 10.2573 23.6624 9.77192 23.6624ZM8.89302 27.3021H6.30859V25.4202H8.89293V27.3021H8.89302Z" fill="#FF9F81"/>
</svg>
