<svg width="236" height="234" viewBox="0 0 236 234" fill="none" xmlns="http://www.w3.org/2000/svg">
<path d="M117.499 0.483606C102.069 0.547114 86.8021 3.62334 72.5706 9.53663C58.339 15.4499 45.4214 24.0845 34.5551 34.9473C23.6888 45.8102 15.0868 58.6886 9.24008 72.8472C3.39337 87.0058 0.416523 102.167 0.479492 117.466C0.54246 132.765 3.64401 147.902 9.60707 162.012C15.5701 176.122 24.2779 188.929 35.2332 199.702C46.1885 210.475 59.1768 219.003 73.4566 224.799C87.7363 230.595 103.028 233.545 118.458 233.482L118.17 163.582C111.998 163.608 105.882 162.427 100.17 160.109C94.4578 157.791 89.2625 154.38 84.8804 150.07C80.4983 145.761 77.0151 140.638 74.6299 134.994C72.2447 129.35 71.0041 123.296 70.9789 117.176C70.9537 111.057 72.1444 104.992 74.4831 99.3284C76.8218 93.665 80.2626 88.5136 84.6091 84.1685C88.9556 79.8234 94.1227 76.3695 99.8153 74.0042C105.508 71.6389 111.615 70.4084 117.787 70.383L117.499 0.483606Z" fill="#FF9F81"/>
<rect x="50" y="133" width="68" height="40" fill="#DBDBDB"/>
<rect x="124" y="133" width="40" height="100" fill="#DBDBDB"/>
</svg>
